<svg width="25" height="25" viewBox="0 0 25 25" fill="none" xmlns="http://www.w3.org/2000/svg">
<g clip-path="url(#clip0_134_593)">
<path d="M16.1371 21.2332C14.8242 21.005 13.8208 19.8644 13.8208 18.4877V12.9781C13.4861 12.5559 13.1078 12.171 12.6854 11.8387C12.1911 11.4493 11.7996 10.9509 11.5314 10.3886C10.8166 10.9934 9.97705 11.3946 9.06944 11.5271L10.2647 19.1467C10.2819 19.2521 10.2575 19.3604 10.1983 19.4491L8.76791 21.5954C8.68933 21.7141 8.55634 21.7856 8.41379 21.7856C8.27123 21.7856 8.1382 21.7141 8.05871 21.5958L6.62762 19.449C6.56839 19.3603 6.54416 19.2521 6.56123 19.1466L7.75572 11.5268C6.84891 11.3937 6.01021 10.9927 5.29446 10.3877C5.02703 10.9505 4.63634 11.4476 4.14053 11.8387C2.85683 12.8494 1.9338 14.3065 1.62653 16.0133L0.366102 23.0257C0.277698 23.5148 0.410833 24.0176 0.730094 24.3995C1.04779 24.7799 1.51933 25 2.0155 25H14.8086C15.3057 25 15.7772 24.7799 16.0941 24.3995C16.4142 24.0177 16.5479 23.5148 16.4587 23.0257L16.1371 21.2332Z" fill="white"/>
<path d="M8.41379 9.91953C10.5145 9.91953 12.2178 7.69896 12.2178 4.95989C12.2178 2.22093 10.5145 0 8.41379 0C6.31148 0 4.60889 2.22093 4.60889 4.95989C4.60889 7.69896 6.31148 9.91953 8.41379 9.91953Z" fill="white"/>
<path d="M23.7103 10.795V9.12228C23.7103 7.11367 22.0782 5.48145 20.07 5.48145C18.0617 5.48145 16.4294 7.11367 16.4294 9.12228V10.795C15.8953 10.8865 15.4805 11.3308 15.4805 11.8919V18.4874C15.4805 19.1145 15.987 19.6213 16.6144 19.6213H23.5263C24.1529 19.6213 24.661 19.1145 24.661 18.4874V11.892C24.661 11.3308 24.2452 10.8865 23.7103 10.795ZM20.9663 15.9286C20.9663 16.4238 20.5643 16.8255 20.0691 16.8255C19.5739 16.8255 19.172 16.4238 19.172 15.9286V14.4505C19.172 13.9553 19.5739 13.5537 20.0691 13.5537C20.5643 13.5537 20.9663 13.9553 20.9663 14.4505V15.9286ZM21.8116 10.7578H18.329V9.12228C18.329 8.16188 19.1112 7.38039 20.07 7.38039C21.0295 7.38039 21.8116 8.16188 21.8116 9.12228V10.7578Z" fill="white"/>
</g>
<defs>
<clipPath id="clip0_134_593">
<rect width="25" height="25" fill="white"/>
</clipPath>
</defs>
</svg>
