<svg width="22" height="22" viewBox="0 0 22 22" fill="none" xmlns="http://www.w3.org/2000/svg">
<path d="M18.9087 3.50858H16.4051V2.50113C16.4051 1.122 15.283 0 13.9039 0H8.09573C6.7166 0 5.59459 1.122 5.59459 2.50113V3.50863H3.09097C2.05967 3.50863 1.2207 4.3476 1.2207 5.37889V6.73542C1.2207 7.76672 2.05967 8.60569 3.09097 8.60569H3.22039L4.98482 21.386C5.03342 21.7379 5.33416 22 5.68938 22H16.31C16.6652 22 16.966 21.7378 17.0146 21.386L18.779 8.60569H18.9085C19.9398 8.60569 20.7788 7.76672 20.7788 6.73542V5.37889C20.7789 4.34764 19.94 3.50858 18.9087 3.50858ZM7.58607 2.50113C7.58607 2.22012 7.81467 1.99148 8.09573 1.99148H13.9039C14.1849 1.99148 14.4136 2.22008 14.4136 2.50113V3.50863H7.58607V2.50113ZM8.31285 18.7897C7.96489 18.7897 7.6608 18.5342 7.60975 18.1798L6.55778 10.8744C6.50184 10.4856 6.77155 10.1251 7.16038 10.0691C7.54946 10.0129 7.90972 10.2828 7.9657 10.6717L9.01767 17.977C9.0792 18.4043 8.74834 18.7897 8.31285 18.7897ZM11.6745 18.0784C11.6745 18.4711 11.356 18.7896 10.9633 18.7896C10.5705 18.7896 10.252 18.4711 10.252 18.0784V10.773C10.252 10.3803 10.5705 10.0618 10.9633 10.0618C11.356 10.0618 11.6745 10.3803 11.6745 10.773V18.0784ZM15.4419 10.8744L14.3899 18.1798C14.334 18.5688 13.9731 18.8384 13.5846 18.7824C13.1958 18.7264 12.926 18.3658 12.982 17.977L14.034 10.6717C14.0899 10.2829 14.4512 10.0131 14.8393 10.0691C15.2281 10.125 15.4979 10.4856 15.4419 10.8744Z" fill="white"/>
</svg>
