<svg width="30" height="30" viewBox="0 0 30 30" fill="none" xmlns="http://www.w3.org/2000/svg">
<path d="M11.1431 14.9996C13.9837 14.9996 16.2859 12.6973 16.2859 9.8567C16.2859 7.01609 13.9837 4.71387 11.1431 4.71387C8.30244 4.71387 6.00021 7.01609 6.00021 9.8567C6.00021 12.6973 8.30244 14.9996 11.1431 14.9996ZM14.7431 16.2853H14.0721C13.1801 16.6951 12.1877 16.9281 11.1431 16.9281C10.0984 16.9281 9.11003 16.6951 8.21405 16.2853H7.54306C4.56182 16.2853 2.14307 18.704 2.14307 21.6853V23.3567C2.14307 24.4214 3.00691 25.2853 4.07164 25.2853H18.2145C19.2792 25.2853 20.1431 24.4214 20.1431 23.3567V21.6853C20.1431 18.704 17.7243 16.2853 14.7431 16.2853ZM27.7207 11.1263L26.6038 9.99734C26.4189 9.80855 26.1176 9.80855 25.9288 9.99305L21.7181 14.1716L19.8899 12.3314C19.7051 12.1427 19.4038 12.1427 19.2149 12.3272L18.0859 13.4481C17.8971 13.6331 17.8971 13.9343 18.0819 14.1231L21.3645 17.4298C21.5493 17.6186 21.8506 17.6186 22.0395 17.4341L27.7167 11.8011C27.9015 11.6123 27.9055 11.3112 27.7207 11.1263Z" fill="white"/>
</svg>
